<svg width="64" height="69" viewBox="0 0 64 69" fill="none" xmlns="http://www.w3.org/2000/svg">
<path d="M28.5359 6.46875L30.8453 2.15625L31.7269 2.62833L32 2.11827L32.2732 2.62834L33.1547 2.15626L35.4641 6.46875L34.5826 6.94084L36.8919 11.2533L37.7735 10.7813L40.0829 15.0938L39.2014 15.5658L41.5107 19.8783L42.3923 19.4062L44.7017 23.7187L43.8202 24.1908L46.1296 28.5033L47.0111 28.0312L49.3205 32.3438L48.439 32.8158L50.7484 37.1283L51.6299 36.6562L53.9393 40.9688L53.0578 41.4408L55.3672 45.7533L56.2487 45.2812L58.5581 49.5938L57.6766 50.0658L58.0429 50.75H57.4034V51.75H52.7846V50.75H48.1658V51.75H43.547V50.75H38.9282V51.75H34.3094V50.75H29.6906V51.75H25.0718V50.75H20.453V51.75H15.8342V50.75H11.2154V51.75H6.59659V50.75H5.95706L6.32344 50.0658L5.44189 49.5937L7.75129 45.2812L8.63284 45.7533L10.9422 41.4408L10.0607 40.9688L12.3701 36.6562L13.2516 37.1283L15.561 32.8158L14.6795 32.3438L16.9889 28.0313L17.8704 28.5033L20.1798 24.1908L19.2983 23.7188L21.6077 19.4063L22.4892 19.8783L24.7986 15.5658L23.9171 15.0938L26.2265 10.7812L27.1081 11.2533L29.4175 6.94083L28.5359 6.46875Z" stroke="#4F654A" stroke-width="2" stroke-dasharray="5 5"/>
<path d="M29.2969 21.7031C29.6615 21.1406 30.0469 20.75 30.4531 20.5312C30.8594 20.3021 31.2812 20.1875 31.7188 20.1875C32.0729 20.1875 32.375 20.2604 32.625 20.4062C32.875 20.5521 33.0781 20.75 33.2344 21C33.3906 21.2396 33.5052 21.526 33.5781 21.8594C33.651 22.1927 33.6875 22.5469 33.6875 22.9219L33.0469 36.4062L31.1875 36.9375L30.5625 24.3125L29.2969 21.7031ZM32 39.5C32.2604 39.5 32.5052 39.5521 32.7344 39.6562C32.974 39.75 33.1771 39.8854 33.3438 40.0625C33.5208 40.2292 33.6562 40.4323 33.75 40.6719C33.8542 40.901 33.9062 41.1458 33.9062 41.4062C33.9062 41.6562 33.8542 41.8958 33.75 42.125C33.6562 42.3542 33.5208 42.5573 33.3438 42.7344C33.1771 42.9115 32.974 43.0521 32.7344 43.1562C32.5052 43.2604 32.2604 43.3125 32 43.3125C31.75 43.3125 31.5052 43.2604 31.2656 43.1562C31.0365 43.0625 30.8333 42.9323 30.6562 42.7656C30.4792 42.5885 30.3385 42.3854 30.2344 42.1562C30.1302 41.9167 30.0781 41.6667 30.0781 41.4062C30.0781 41.1458 30.1302 40.901 30.2344 40.6719C30.3385 40.4323 30.474 40.2292 30.6406 40.0625C30.8177 39.8854 31.0208 39.75 31.25 39.6562C31.4896 39.5521 31.7396 39.5 32 39.5Z" fill="#4F654A"/>
</svg>
